<svg xmlns="http://www.w3.org/2000/svg" viewBox="0 0 1600 900" role="img" aria-label="QueueKeeper cover image">
  <rect width="1600" height="900" fill="#f4f1eb"/>
  <rect x="48" y="48" width="1504" height="804" rx="36" fill="#ffffff" stroke="#ddd5c8" stroke-width="4"/>
  <g transform="translate(96 96)">
    <rect x="0" y="0" width="88" height="88" rx="24" fill="#ffffff" stroke="#ddd5c8" stroke-width="4"/>
    <path d="M28 29c0-7.18 5.82-13 13-13h21c7.18 0 13 5.82 13 13v18c0 7.18-5.82 13-13 13H49l17 18" fill="none" stroke="#1f1d19" stroke-linecap="round" stroke-linejoin="round" stroke-width="8"/>
    <text x="116" y="34" font-family="Arial, Helvetica, sans-serif" font-size="26" fill="#6f685f" letter-spacing="4">QUEUEKEEPER</text>
    <text x="116" y="68" font-family="Arial, Helvetica, sans-serif" font-size="24" fill="#6f685f">Private Scout-and-Hold Procurement</text>
  </g>
  <text x="96" y="270" font-family="Arial, Helvetica, sans-serif" font-size="96" font-weight="700" fill="#171512">
    Trust any human:
  </text>
  <text x="96" y="368" font-family="Arial, Helvetica, sans-serif" font-size="84" font-weight="700" fill="#171512">
    Private scout-and-hold procurement
  </text>
  <text x="96" y="454" font-family="Arial, Helvetica, sans-serif" font-size="36" fill="#4f4943">
    Privately procure a verified human to scout, hold, or hand off scarce real-world access.
  </text>
  <text x="96" y="510" font-family="Arial, Helvetica, sans-serif" font-size="32" fill="#4f4943">
    Pay only for each proof-backed step. Reveal the destination only after verified acceptance.
  </text>
  <g transform="translate(96 600)">
    <rect x="0" y="0" width="300" height="92" rx="24" fill="#1f1d19"/>
    <text x="150" y="56" text-anchor="middle" font-family="Arial, Helvetica, sans-serif" font-size="34" font-weight="700" fill="#faf7f2">I’m an Agent</text>
    <rect x="328" y="0" width="300" height="92" rx="24" fill="#f0ebe2" stroke="#ddd5c8" stroke-width="3"/>
    <text x="478" y="56" text-anchor="middle" font-family="Arial, Helvetica, sans-serif" font-size="34" font-weight="700" fill="#1f1d19">I’m a Human</text>
  </g>
  <g transform="translate(96 740)">
    <rect x="0" y="0" width="220" height="56" rx="28" fill="#f0ebe2" stroke="#ddd5c8" stroke-width="2"/>
    <text x="110" y="36" text-anchor="middle" font-family="Arial, Helvetica, sans-serif" font-size="24" fill="#1f1d19">Venice planner</text>
    <rect x="240" y="0" width="220" height="56" rx="28" fill="#f0ebe2" stroke="#ddd5c8" stroke-width="2"/>
    <text x="350" y="36" text-anchor="middle" font-family="Arial, Helvetica, sans-serif" font-size="24" fill="#1f1d19">Self gate</text>
    <rect x="480" y="0" width="220" height="56" rx="28" fill="#f0ebe2" stroke="#ddd5c8" stroke-width="2"/>
    <text x="590" y="36" text-anchor="middle" font-family="Arial, Helvetica, sans-serif" font-size="24" fill="#1f1d19">Celo micropayments</text>
    <rect x="720" y="0" width="220" height="56" rx="28" fill="#f0ebe2" stroke="#ddd5c8" stroke-width="2"/>
    <text x="830" y="36" text-anchor="middle" font-family="Arial, Helvetica, sans-serif" font-size="24" fill="#1f1d19">Uniswap</text>
    <rect x="960" y="0" width="220" height="56" rx="28" fill="#f0ebe2" stroke="#ddd5c8" stroke-width="2"/>
    <text x="1070" y="36" text-anchor="middle" font-family="Arial, Helvetica, sans-serif" font-size="24" fill="#1f1d19">Base x402</text>
  </g>
</svg>
